<svg class="route-overlay__nav-svg" viewBox="0 0 24 24" aria-hidden="true" xmlns="http://www.w3.org/2000/svg">
  <path
    fill="currentColor"
    fill-rule="evenodd"
    d="M12 4.15a7.85 7.85 0 1 0 0 15.7 7.85 7.85 0 0 0 0-15.7Zm0 1.7a6.15 6.15 0 1 1 0 12.3 6.15 6.15 0 0 1 0-12.3Zm-.12 2.38c-1.76 0-2.96.98-3.26 2.45a.9.9 0 1 0 1.76.36c.15-.74.66-1.1 1.44-1.1.87 0 1.42.48 1.42 1.2 0 .62-.35.98-1.06 1.42-.98.61-1.88 1.35-1.88 2.9v.23a.9.9 0 1 0 1.8 0v-.14c0-.76.34-1.12 1.03-1.56.98-.62 1.91-1.4 1.91-2.95 0-1.75-1.36-2.81-3.16-2.81Zm0 9.62a1.03 1.03 0 1 0 0 2.06 1.03 1.03 0 0 0 0-2.06Z"
    clip-rule="evenodd"
  />
</svg>
