<svg class="route-overlay__nav-svg" viewBox="0 0 24 24" aria-hidden="true" xmlns="http://www.w3.org/2000/svg">
  <path
    fill="currentColor"
    fill-rule="evenodd"
    d="M12 4.4a5.35 5.35 0 0 1 3.67 9.24c-.67.62-1.08 1.22-1.24 1.84a1.4 1.4 0 0 1-1.36 1.05h-2.14a1.4 1.4 0 0 1-1.36-1.05c-.16-.62-.57-1.22-1.24-1.84A5.35 5.35 0 0 1 12 4.4Zm-1.16 12.97h2.32c.12 0 .22.1.22.22v.16c0 .13-.1.23-.22.23h-2.32a.23.23 0 0 1-.22-.23v-.16c0-.12.1-.22.22-.22Zm.2 1.65h1.92c.29 0 .52.24.52.53v.05c0 .66-.53 1.2-1.2 1.2h-.56c-.67 0-1.2-.54-1.2-1.2v-.05c0-.29.23-.53.52-.53Z"
    clip-rule="evenodd"
  />
</svg>
