<svg class="route-overlay__nav-svg" viewBox="0 0 24 24" aria-hidden="true" xmlns="http://www.w3.org/2000/svg">
  <path
    fill="currentColor"
    fill-rule="evenodd"
    d="M10.55 3.8h2.9l.42 1.95c.4.11.79.27 1.16.48l1.64-1.08 2.05 2.05-1.08 1.64c.21.37.37.76.48 1.16l1.95.42v2.9l-1.95.42c-.11.4-.27.79-.48 1.16l1.08 1.64-2.05 2.05-1.64-1.08c-.37.21-.76.37-1.16.48l-.42 1.95h-2.9l-.42-1.95c-.4-.11-.79-.27-1.16-.48l-1.64 1.08-2.05-2.05 1.08-1.64a5.57 5.57 0 0 1-.48-1.16l-1.95-.42v-2.9l1.95-.42c.11-.4.27-.79.48-1.16L5.28 7.2l2.05-2.05 1.64 1.08c.37-.21.76-.37 1.16-.48l.42-1.95Zm1.45 4.2a4 4 0 1 0 0 8 4 4 0 0 0 0-8Zm0 1.55a2.45 2.45 0 1 1 0 4.9 2.45 2.45 0 0 1 0-4.9Z"
    clip-rule="evenodd"
  />
</svg>
