<svg viewBox="0 0 300 420" xmlns="http://www.w3.org/2000/svg">
  <rect width="300" height="420" rx="18" fill="#B88844"/>
  <rect x="10" y="10" width="280" height="400" rx="14" fill="#C89850" opacity="0.4"/>
  <rect x="10" y="10" width="280" height="400" rx="14" fill="none" stroke="#6B4410" stroke-width="3"/>
  <rect x="18" y="18" width="264" height="384" rx="10" fill="none" stroke="#DEB870" stroke-width="1.5" opacity="0.7"/>
  <g stroke="#6B4410" stroke-width="1.2" fill="none" opacity="0.4">
    <path d="M55,120 Q100,105 145,118 Q185,130 225,112 Q258,98 272,108"/>
    <path d="M50,155 Q96,140 140,153 Q180,165 218,148 Q252,134 272,143"/>
    <path d="M52,192 Q98,180 148,191 Q192,202 232,186 Q260,174 272,180"/>
    <path d="M55,228 Q100,218 150,227 Q198,236 236,221 Q262,212 272,218"/>
    <path d="M58,264 Q104,255 152,263 Q198,271 234,257 Q261,248 272,254"/>
    <path d="M62,300 Q108,292 154,300 Q200,308 235,294 Q261,285 272,291"/>
  </g>
  <path d="M72,372 Q128,315 150,265 Q172,212 202,176 Q222,150 242,132" stroke="#8B2A10" stroke-width="2.5" fill="none" stroke-dasharray="7,4" opacity="0.75"/>
  <circle cx="72" cy="372" r="7" fill="#8B2A10" opacity="0.8"/>
  <circle cx="150" cy="265" r="5" fill="#8B2A10" opacity="0.65"/>
  <circle cx="242" cy="132" r="7" fill="#8B2A10" opacity="0.8"/>
  <g transform="translate(245,355)">
    <circle r="22" fill="none" stroke="#6B4410" stroke-width="1.5" opacity="0.6"/>
    <polygon points="0,-18 -4,-8 0,-12 4,-8" fill="#8B2A10" opacity="0.85"/>
    <polygon points="0,18 -4,8 0,12 4,8" fill="#6B4410" opacity="0.6"/>
    <polygon points="18,0 8,-4 12,0 8,4" fill="#6B4410" opacity="0.6"/>
    <polygon points="-18,0 -8,-4 -12,0 -8,4" fill="#6B4410" opacity="0.6"/>
    <circle r="4" fill="#6B4410" opacity="0.75"/>
    <text x="0" y="-25" text-anchor="middle" font-size="11" font-family="serif" fill="#6B3010">N</text>
  </g>
  <g stroke="#7A5020" stroke-width="1.5" opacity="0.6" fill="none">
    <path d="M28,28 L46,28 M28,28 L28,46"/>
    <path d="M272,28 L254,28 M272,28 L272,46"/>
    <path d="M28,392 L46,392 M28,392 L28,374"/>
    <path d="M272,392 L254,392 M272,392 L272,374"/>
  </g>
</svg>
